<?xml version="1.0" encoding="iso-8859-1"?>
<!-- Generator: Adobe Illustrator 19.0.0, SVG Export Plug-In . SVG Version: 6.00 Build 0)  -->
<svg version="1.1" id="Capa_1" xmlns="http://www.w3.org/2000/svg" xmlns:xlink="http://www.w3.org/1999/xlink" x="0px" y="0px"
	 viewBox="0 0 512.001 512.001" style="enable-background:new 0 0 512.001 512.001;" xml:space="preserve">
<g>
	<g>
		<path d="M511.798,499.243l-16.96-84.651c-3.435-17.237-15.125-31.637-31.275-38.571l-48.448-20.757
			c-4.373-1.856-9.344-0.683-12.352,2.923c-36.715,43.52-90.219,68.48-146.773,68.48s-110.059-24.96-146.773-68.48
			c-3.008-3.584-7.979-4.779-12.352-2.923l-48.448,20.757c-16.149,6.933-27.84,21.333-31.275,38.571L0.203,499.243
			c-0.619,3.136,0.192,6.379,2.219,8.853C4.448,510.571,7.478,512,10.656,512h490.667c3.179,0,6.229-1.429,8.256-3.904
			C511.606,505.622,512.416,502.379,511.798,499.243z"/>
	</g>
</g>
<g>
	<g>
		<path d="M399.798,328.342c-11.584-4.8-24.32-2.219-33.237,6.699c-4.16,4.16-4.16,10.923,0,15.083c4.16,4.16,10.923,4.16,15.083,0
			c2.773-2.773,6.4-3.563,9.984-2.069c5.397,2.24,8.619,8.597,8.619,17.003c0,5.888,4.779,10.667,10.667,10.667
			s10.667-4.757,10.667-10.667C421.579,347.968,413.238,333.91,399.798,328.342z"/>
	</g>
</g>
<g>
	<g>
		<path d="M145.419,335.04c-8.96-8.917-21.675-11.499-33.237-6.699C98.763,333.931,90.4,347.99,90.4,365.056
			c0,5.888,4.779,10.667,10.667,10.667c5.909,0,10.667-4.757,10.667-10.667c0-8.405,3.221-14.763,8.619-17.003
			c3.541-1.493,7.189-0.704,9.984,2.069c4.16,4.16,10.923,4.16,15.083,0C149.579,345.963,149.579,339.2,145.419,335.04z"/>
	</g>
</g>
<g>
	<g>
		<path d="M295.179,287.275c-4.011,5.44-11.285,9.323-20.544,10.752c58.795-3.755,100.288-24.747,107.947-45.76
			C356.726,269.611,315.638,284.054,295.179,287.275z"/>
	</g>
</g>
<g>
	<g>
		<path d="M255.99,128c-75.435,0-128,28.096-128,53.333v64c0,25.237,52.565,53.333,128,53.333c2.624,0,5.163-0.107,7.744-0.171
			c-16.981-0.917-29.077-9.472-29.077-21.163c0-12.373,13.461-21.333,32-21.333c12.181,0,22.059,3.904,27.477,10.069
			c26.816-4.181,85.397-31.339,89.856-42.667v-42.069C383.99,156.096,331.424,128,255.99,128z M359.2,192.683
			c-4.288,4.011-11.072,3.733-15.061-0.64c-5.248-5.717-35.861-21.376-88.149-21.376c-45.781,0-72.725,12.181-79.893,15.915
			c-3.349,1.749-5.44,5.333-5.44,9.387v49.365c0,5.888-4.779,10.667-10.667,10.667s-10.667-4.779-10.667-10.667v-49.365
			c0-12.011,6.485-22.869,16.896-28.288c10.581-5.525,40.512-18.347,89.771-18.347c56.747,0,93.803,17.344,103.851,28.267
			C363.83,181.952,363.552,188.694,359.2,192.683z"/>
	</g>
</g>
<g>
	<g>
		<path d="M255.99,0C161.888,0,85.323,76.566,85.323,170.667v64c0,94.101,76.565,170.667,170.667,170.667
			s170.667-76.565,170.667-170.667v-64C426.656,76.566,350.091,0,255.99,0z M405.323,245.334c0,41.856-65.6,74.667-149.333,74.667
			s-149.333-32.811-149.333-74.667v-64c0-41.856,65.6-74.667,149.333-74.667s149.333,32.811,149.333,74.667V245.334z"/>
	</g>
</g>
<g>
</g>
<g>
</g>
<g>
</g>
<g>
</g>
<g>
</g>
<g>
</g>
<g>
</g>
<g>
</g>
<g>
</g>
<g>
</g>
<g>
</g>
<g>
</g>
<g>
</g>
<g>
</g>
<g>
</g>
</svg>
